<svg width="166" height="45" viewBox="0 0 166 45" fill="none" xmlns="http://www.w3.org/2000/svg">
<g clip-path="url(#clip0_312_8626)">
<path d="M13.5216 44.7523L5.69434 31.3325L43.4853 31.3952L47.533 24.1095L1.09375 24.1665V21.7721L6.92003 11.8983L41.5357 12.0807L36.707 3.46098L12.353 3.5864L13.191 1.00391H38.4173L46.1191 14.6005H8.57328L4.82211 21.584H50.4746V23.8587L45.036 33.8067L10.4033 33.7325L15.2319 42.2325H39.8197L38.4173 44.7523H13.5216Z" fill="white"/>
<path d="M66.8652 34.6899V32.9854L80.2566 13.2148H67.9883V10.8945H83.66V12.5991L70.2344 32.364H83.8253V34.6899H66.8652Z" fill="white"/>
<path d="M95.0447 34.9305C90.2901 34.9305 87.0977 31.51 87.0977 26.3792C87.0977 20.8836 90.1818 17.1895 94.771 17.1895C101.287 17.1895 101.475 24.116 101.475 24.9084C101.488 25.2646 101.471 25.6212 101.424 25.9745L101.367 26.2766H89.435C89.549 30.4154 91.6583 32.787 95.2385 32.787C96.7433 32.8552 98.2417 32.5497 99.5996 31.8977L99.9816 31.7152L100.62 33.682L100.352 33.8303C99.7479 34.1723 98.0262 34.9305 95.0447 34.9305ZM99.0353 24.2699C99.0512 22.8663 98.5523 21.5054 97.6329 20.4446C97.2236 20.0545 96.7389 19.7522 96.2085 19.5561C95.6781 19.36 95.1133 19.2744 94.5487 19.3045C91.4816 19.3045 89.988 21.8414 89.5604 24.2927L99.0353 24.2699Z" fill="white"/>
<path d="M111.759 34.9296C111.18 34.964 110.601 34.8658 110.065 34.6426C109.53 34.4193 109.052 34.0768 108.669 33.6412C107.939 32.7918 107.597 31.4863 107.597 29.5309V19.6228H104.85V17.5762H107.597V13.4944L109.946 12.7305V17.5762H114.575V19.6228H109.946V29.7988C109.946 31.8683 110.568 32.7918 111.959 32.7918C112.538 32.8061 113.115 32.7272 113.669 32.5581L114.085 32.4155L114.399 34.3823L114.131 34.4964C113.376 34.7928 112.57 34.9399 111.759 34.9296Z" fill="white"/>
<path d="M125.931 34.9305C121.177 34.9305 117.984 31.51 117.984 26.3792C117.984 20.8836 121.069 17.1895 125.663 17.1895C132.174 17.1895 132.362 24.116 132.362 24.9084C132.374 25.2646 132.357 25.6212 132.311 25.9745L132.254 26.2766H120.322C120.441 30.4154 122.545 32.787 126.125 32.787C127.63 32.8552 129.128 32.5497 130.486 31.8977L130.868 31.7152L131.513 33.682L131.239 33.8303C130.635 34.1723 128.913 34.9305 125.931 34.9305ZM129.922 24.2699C129.934 22.8669 129.436 21.5073 128.52 20.4446C128.11 20.0545 127.626 19.7522 127.095 19.5561C126.565 19.36 126 19.2744 125.435 19.3045C122.368 19.3045 120.875 21.8414 120.447 24.2927L129.922 24.2699Z" fill="white"/>
<path d="M158.295 34.9306C154.749 34.9306 153.164 32.4222 153.164 30.0906C153.164 26.0373 156.681 23.8196 163.078 23.774V23.717C163.078 20.7412 161.852 19.2931 159.332 19.2931C157.943 19.2673 156.579 19.6649 155.422 20.4333L155.051 20.6956L154.236 18.8314L154.492 18.6603C155.972 17.694 157.702 17.1826 159.469 17.1895C163.363 17.1895 165.427 19.5383 165.427 23.9849V30.3699C165.409 31.6434 165.488 32.9163 165.66 34.1781L165.723 34.6057H163.477L163.294 32.7643C162.659 33.4552 161.886 34.0051 161.025 34.3783C160.163 34.7514 159.233 34.9396 158.295 34.9306ZM162.673 25.8605C157.964 25.8605 155.581 27.2002 155.581 29.8511C155.581 32.0745 157.058 32.8726 158.432 32.8726C159.4 32.909 160.354 32.6364 161.156 32.0942C161.959 31.552 162.568 30.7684 162.895 29.8568C162.988 29.5828 163.038 29.2964 163.044 29.0074V25.8776L162.673 25.8605Z" fill="white"/>
<path d="M147.447 34.5757L144.443 30.3C143.964 29.6273 143.519 28.9603 143.114 28.3332H142.265C141.94 28.8349 141.598 29.3252 141.222 29.8611L137.966 34.5757H135.213L140.634 27.0163V24.736L135.566 17.5586H138.28L141.187 21.6803C141.586 22.2504 141.957 22.7692 142.328 23.3906H143.211C143.53 22.9231 143.85 22.4727 144.175 22.011L147.282 17.5814H149.99L144.659 25.021V26.7313L150.183 34.5757H147.447Z" fill="white"/>
</g>
<defs>
<clipPath id="clip0_312_8626">
<rect width="165" height="44.2273" fill="white" transform="translate(0.820312 0.724609)"/>
</clipPath>
</defs>
</svg>
