<svg width="42" height="42" viewBox="0 0 42 42" fill="none" xmlns="http://www.w3.org/2000/svg">
<g id="Group 1000015202">
<circle id="Ellipse 57" opacity="0.1" cx="21" cy="21" r="21" fill="white"/>
<path id="Vector" d="M26.8682 21.7504C26.901 25.3824 29.966 26.5911 30 26.6065C29.9741 26.6917 29.5103 28.3288 28.3852 30.0199C27.4126 31.482 26.4032 32.9386 24.8131 32.9688C23.2507 32.9984 22.7483 32.0158 20.962 32.0158C19.1762 32.0158 18.618 32.9386 17.139 32.9984C15.6042 33.0582 14.4353 31.4175 13.4547 29.9608C11.4509 26.9811 9.91955 21.5409 11.9758 17.8687C12.9972 16.0451 14.8227 14.8903 16.8041 14.8607C18.3113 14.8311 19.7338 15.9036 20.6552 15.9036C21.5761 15.9036 23.3048 14.6138 25.1222 14.8033C25.883 14.8358 28.0187 15.1194 29.39 17.1839C29.2795 17.2544 26.8417 18.714 26.8682 21.7504ZM23.9318 12.832C24.7467 11.8175 25.2951 10.4052 25.1455 9C23.9709 9.04855 22.5506 9.80502 21.7081 10.819C20.9531 11.7168 20.2919 13.154 20.4703 14.5314C21.7795 14.6355 23.1169 13.8471 23.9318 12.832Z" fill="#C8C8C8"/>
</g>
</svg>
