<svg width="25" height="19" viewBox="0 0 25 19" fill="none" xmlns="http://www.w3.org/2000/svg">
<path d="M18.2056 7.73848L18.2912 7.798L18.3769 7.73848L20.8855 5.99453L20.9499 5.94978V5.87137V4.87483V4.58787L20.7143 4.75167L18.2912 6.43609L15.8682 4.75167L15.6326 4.58787V4.87483V5.87137V5.94978L15.6969 5.99453L18.2056 7.73848ZM16.555 16.907L16.5981 16.9833H16.6857H22.8069H22.9569V16.8333V2.88175V2.73175H22.8069H2.73741H2.58741V2.88175V16.8333V16.9833H2.73741H2.83776H2.92538L2.96842 16.907C3.65758 15.6848 4.60818 14.7287 5.82215 14.0363C7.0369 13.3434 8.34921 12.9971 9.76172 12.9971C11.1742 12.9971 12.4865 13.3434 13.7013 14.0363C14.9153 14.7287 15.8659 15.6848 16.555 16.907ZM5.18629 16.7313L4.95257 16.9833H5.29627H14.2272H14.5642L14.3386 16.7329C13.756 16.0862 13.0657 15.5838 12.2691 15.2265C11.4721 14.8691 10.6358 14.6902 9.76172 14.6902C8.88762 14.6902 8.05534 14.8691 7.26636 15.2268C6.47853 15.584 5.78494 16.0858 5.18629 16.7313ZM21.6534 4.02829V8.71099H14.9291V4.02829H21.6534ZM2.73741 18.6764C2.22527 18.6764 1.79075 18.497 1.42571 18.1345C1.0607 17.772 0.880469 17.341 0.880469 16.8333V2.88175C0.880469 2.37409 1.0607 1.94306 1.42571 1.58057C1.79075 1.21805 2.22527 1.03867 2.73741 1.03867H22.8069C23.319 1.03867 23.7535 1.21805 24.1186 1.58057C24.4836 1.94306 24.6638 2.37409 24.6638 2.88175V16.8333C24.6638 17.341 24.4836 17.772 24.1186 18.1345C23.7535 18.497 23.319 18.6764 22.8069 18.6764H2.73741ZM11.7884 10.8722C11.2316 11.4252 10.5589 11.7006 9.76172 11.7006C8.96449 11.7006 8.29187 11.4252 7.73504 10.8722C7.17825 10.3193 6.9013 9.65178 6.9013 8.86099C6.9013 8.0702 7.17825 7.40272 7.73504 6.84978C8.29187 6.29679 8.96449 6.02137 9.76172 6.02137C10.5589 6.02137 11.2316 6.29679 11.7884 6.84978C12.3452 7.40272 12.6221 8.0702 12.6221 8.86099C12.6221 9.65178 12.3452 10.3193 11.7884 10.8722ZM8.94105 9.67746C9.16297 9.89785 9.43995 10.0075 9.76172 10.0075C10.0835 10.0075 10.3605 9.89785 10.5824 9.67746C10.8044 9.45701 10.9152 9.18145 10.9152 8.86099C10.9152 8.54053 10.8044 8.26497 10.5824 8.04452C10.3605 7.82413 10.0835 7.71445 9.76172 7.71445C9.43995 7.71445 9.16297 7.82413 8.94105 8.04452C8.71907 8.26497 8.60825 8.54053 8.60825 8.86099C8.60825 9.18145 8.71907 9.45701 8.94105 9.67746Z" fill="white" stroke="#4C5066" stroke-width="0.3"/>
</svg>
