<svg width="17" height="18" viewBox="0 0 17 18" fill="none" xmlns="http://www.w3.org/2000/svg">
<path id="browse" d="M3.74999 9.6406C1.67893 9.6406 0 7.96168 0 5.89061V1.94833C0 1.44319 0.175 1.01563 0.525 0.665625C0.875 0.315625 1.30257 0.140625 1.8077 0.140625H2.74999C5.37333 0.140625 7.49998 2.26727 7.49998 4.89061V5.89061C7.49998 7.96167 5.82105 9.6406 3.74999 9.6406ZM9.49998 2.89061C9.49998 1.37184 10.7312 0.140625 12.25 0.140625H15.1923C15.6974 0.140625 16.125 0.315625 16.475 0.665625C16.825 1.01563 17 1.44425 17 1.9515C17 3.98893 15.3483 5.6406 13.3109 5.6406H12.25C10.7312 5.6406 9.49998 4.40939 9.49998 2.89061ZM14.25 17.1406C11.6266 17.1406 9.49998 15.0139 9.49998 12.3906V11.3906C9.49998 9.31953 11.1789 7.6406 13.25 7.6406C15.321 7.6406 17 9.31953 17 11.3906V15.3329C17 15.838 16.825 16.2656 16.475 16.6156C16.125 16.9656 15.6974 17.1406 15.1923 17.1406H14.25ZM0 15.3297C0 13.2923 1.65167 11.6406 3.6891 11.6406H4.74999C6.26876 11.6406 7.49998 12.8718 7.49998 14.3906C7.49998 15.9094 6.26876 17.1406 4.74999 17.1406H1.8077C1.30257 17.1406 0.875 16.9656 0.525 16.6156C0.175 16.2656 0 15.837 0 15.3297ZM1.49997 5.89062C1.49997 7.13326 2.50734 8.14063 3.74999 8.14063C4.99264 8.14063 6 7.13326 6 5.89061V4.89061C6 3.09568 4.54492 1.6406 2.74999 1.6406H1.8077C1.71795 1.6406 1.64423 1.66945 1.58653 1.72715C1.52883 1.78485 1.49997 1.85858 1.49997 1.94833V5.89062ZM11 2.89061C11 3.58098 11.5596 4.14063 12.25 4.14063H13.3077C14.5185 4.14063 15.5 3.1591 15.5 1.94833C15.5 1.85858 15.4711 1.78485 15.4134 1.72715C15.3557 1.66945 15.282 1.6406 15.1923 1.6406H12.25C11.5596 1.6406 11 2.20025 11 2.89061ZM13.25 9.14058C12.0073 9.14058 11 10.1479 11 11.3906V12.3906C11 14.1855 12.455 15.6406 14.25 15.6406H15.1923C15.282 15.6406 15.3557 15.6118 15.4134 15.5541C15.4711 15.4964 15.5 15.4226 15.5 15.3329V11.3906C15.5 10.1479 14.4926 9.14058 13.25 9.14058ZM3.69227 13.1406C2.4815 13.1406 1.49997 14.1221 1.49997 15.3329C1.49997 15.4226 1.52883 15.4964 1.58653 15.5541C1.64423 15.6118 1.71795 15.6406 1.8077 15.6406H4.74999C5.44035 15.6406 6 15.081 6 14.3906C6 13.7002 5.44035 13.1406 4.74999 13.1406H3.69227Z" fill="#9564F8"/>
</svg>
