<svg width="20" height="21" viewBox="0 0 20 21" fill="none" xmlns="http://www.w3.org/2000/svg">
<path d="M3 20.6406C2.45 20.6406 1.97917 20.4448 1.5875 20.0531C1.19583 19.6615 1 19.1906 1 18.6406V7.36562C0.7 7.18229 0.458333 6.94479 0.275 6.65313C0.0916667 6.36146 0 6.02396 0 5.64062V2.64062C0 2.09062 0.195833 1.61979 0.5875 1.22813C0.979167 0.836458 1.45 0.640625 2 0.640625H18C18.55 0.640625 19.0208 0.836458 19.4125 1.22813C19.8042 1.61979 20 2.09062 20 2.64062V5.64062C20 6.02396 19.9083 6.36146 19.725 6.65313C19.5417 6.94479 19.3 7.18229 19 7.36562V18.6406C19 19.1906 18.8042 19.6615 18.4125 20.0531C18.0208 20.4448 17.55 20.6406 17 20.6406H3ZM3 7.64062V18.6406H17V7.64062H3ZM2 5.64062H18V2.64062H2V5.64062ZM7 12.6406H13V10.6406H7V12.6406Z" fill="#9564F8"/>
</svg>
