<svg width="22" height="22" viewBox="0 0 22 22" fill="none" xmlns="http://www.w3.org/2000/svg">
<g id="Frame" clip-path="url(#clip0_705_792)">
<g id="logout-1--arrow-exit-frame-leave-logout-rectangle-right">
<path id="Vector" d="M14.9286 16.5V19.6428C14.9286 20.0596 14.763 20.4594 14.4683 20.754C14.1736 21.0486 13.7739 21.2143 13.3571 21.2143H2.35713C1.94036 21.2143 1.54067 21.0486 1.24597 20.754C0.951267 20.4594 0.785706 20.0596 0.785706 19.6428V2.35713C0.785706 1.94036 0.951267 1.54067 1.24597 1.24597C1.54067 0.951267 1.94036 0.785706 2.35713 0.785706H13.3571C13.7739 0.785706 14.1736 0.951267 14.4683 1.24597C14.763 1.54067 14.9286 1.94036 14.9286 2.35713V5.49999" stroke="white" stroke-linecap="round" stroke-linejoin="round"/>
<path id="Vector_2" d="M10.2143 11H21.2143" stroke="white" stroke-linecap="round" stroke-linejoin="round"/>
<path id="Vector_3" d="M18.0714 7.85712L21.2143 11L18.0714 14.1428" stroke="white" stroke-linecap="round" stroke-linejoin="round"/>
</g>
</g>
<defs>
<clipPath id="clip0_705_792">
<rect width="22" height="22" fill="white"/>
</clipPath>
</defs>
</svg>
