<svg width="20" height="21" viewBox="0 0 20 21" fill="none" xmlns="http://www.w3.org/2000/svg">
<path d="M14.275 17.8906L17.75 14.4406L16.7 13.3906L14.275 15.7656L13.3 14.7906L12.25 15.8656L14.275 17.8906ZM3 6.64062H15V4.64062H3V6.64062ZM15 20.6406C13.6167 20.6406 12.4375 20.1531 11.4625 19.1781C10.4875 18.2031 10 17.024 10 15.6406C10 14.2573 10.4875 13.0781 11.4625 12.1031C12.4375 11.1281 13.6167 10.6406 15 10.6406C16.3833 10.6406 17.5625 11.1281 18.5375 12.1031C19.5125 13.0781 20 14.2573 20 15.6406C20 17.024 19.5125 18.2031 18.5375 19.1781C17.5625 20.1531 16.3833 20.6406 15 20.6406ZM0 19.6406V2.64062C0 2.09062 0.195833 1.61979 0.5875 1.22813C0.979167 0.836458 1.45 0.640625 2 0.640625H16C16.55 0.640625 17.0208 0.836458 17.4125 1.22813C17.8042 1.61979 18 2.09062 18 2.64062V9.31563C17.6833 9.16563 17.3583 9.04063 17.025 8.94063C16.6917 8.84063 16.35 8.76562 16 8.71562V2.64062H2V16.6906H8.075C8.15833 17.2073 8.2875 17.699 8.4625 18.1656C8.6375 18.6323 8.86667 19.074 9.15 19.4906L9 19.6406L7.5 18.1406L6 19.6406L4.5 18.1406L3 19.6406L1.5 18.1406L0 19.6406ZM3 14.6406H8.075C8.125 14.2906 8.2 13.949 8.3 13.6156C8.4 13.2823 8.525 12.9573 8.675 12.6406H3V14.6406ZM3 10.6406H10.1C10.7333 10.024 11.4708 9.53646 12.3125 9.17813C13.1542 8.81979 14.05 8.64062 15 8.64062H3V10.6406Z" fill="#9564F8"/>
</svg>
