<svg width="17" height="21" viewBox="0 0 17 21" fill="none" xmlns="http://www.w3.org/2000/svg">
<path d="M5.01736 10.6406C4.73304 10.6406 4.49472 10.5448 4.30239 10.3531C4.11005 10.1615 4.01389 9.92396 4.01389 9.64062C4.01389 9.35729 4.11005 9.11979 4.30239 8.92813C4.49472 8.73646 4.73304 8.64062 5.01736 8.64062H11.0382C11.3225 8.64062 11.5608 8.73646 11.7532 8.92813C11.9455 9.11979 12.0417 9.35729 12.0417 9.64062C12.0417 9.92396 11.9455 10.1615 11.7532 10.3531C11.5608 10.5448 11.3225 10.6406 11.0382 10.6406H5.01736ZM5.01736 6.64062C4.73304 6.64062 4.49472 6.54479 4.30239 6.35313C4.11005 6.16146 4.01389 5.92396 4.01389 5.64062C4.01389 5.35729 4.11005 5.11979 4.30239 4.92812C4.49472 4.73646 4.73304 4.64062 5.01736 4.64062H11.0382C11.3225 4.64062 11.5608 4.73646 11.7532 4.92812C11.9455 5.11979 12.0417 5.35729 12.0417 5.64062C12.0417 5.92396 11.9455 6.16146 11.7532 6.35313C11.5608 6.54479 11.3225 6.64062 11.0382 6.64062H5.01736ZM2.00694 12.6406H9.53299C10.018 12.6406 10.4696 12.7448 10.8877 12.9531C11.3058 13.1615 11.657 13.4573 11.9413 13.8406L14.0486 16.5906V2.64062H2.00694V12.6406ZM2.00694 18.6406H13.0953L10.3609 15.0656C10.2605 14.9323 10.1393 14.8281 9.99709 14.7531C9.85493 14.6781 9.70023 14.6406 9.53299 14.6406H2.00694V18.6406ZM14.0486 20.6406H2.00694C1.45503 20.6406 0.982567 20.4448 0.58954 20.0531C0.196513 19.6615 0 19.1906 0 18.6406V2.64062C0 2.09062 0.196513 1.61979 0.58954 1.22813C0.982567 0.836458 1.45503 0.640625 2.00694 0.640625H14.0486C14.6005 0.640625 15.073 0.836458 15.466 1.22813C15.859 1.61979 16.0556 2.09062 16.0556 2.64062V18.6406C16.0556 19.1906 15.859 19.6615 15.466 20.0531C15.073 20.4448 14.6005 20.6406 14.0486 20.6406Z" fill="#9564F8"/>
</svg>
