<?xml version="1.0" encoding="utf-8"?><svg version="1.1" id="Layer_1" xmlns="http://www.w3.org/2000/svg" xmlns:xlink="http://www.w3.org/1999/xlink" x="0px" y="0px" viewBox="0 0 109.86 122.88" style="enable-background:new 0 0 109.86 122.88" xml:space="preserve"><style type="text/css">.st0{fill-rule:evenodd;clip-rule:evenodd;}</style><g><path class="st0" d="M77.99,75.44c2-9.81,5.07-1.68,14.65,6.25v0c0.09,0.07,0.16,0.16,0.21,0.26c0.22,0.42,0.05,0.93-0.37,1.14 l-1.72,0.88c18.74,10.94,18.87,16.97,19.05,33.67c0.01,1.1,0.02,2.22,0.04,3.38c0.01,0.06,0.01,0.12,0.01,0.17 c0,0.93-0.83,1.68-1.85,1.68c-35.4,0-70.75,0-106.16,0c-1.02,0-1.85-0.75-1.85-1.68c0-0.06,0-0.12,0.01-0.17 c0.02-1.16,0.03-2.28,0.04-3.38c0.18-16.74,0.31-22.79,19.17-33.75l-1.58-0.81c-0.42-0.21-0.59-0.73-0.37-1.14 c0.05-0.1,0.13-0.19,0.21-0.26l0,0L30.03,71.3c1.72-1.42,2.01,3.68,2.15,4.36c0.97,0.56,2.91-3.23,4.44-3.38 c-0.55-0.54-1.1-1.05-1.59-1.51c-2.91-2.71-4.28-3.99-5.44-9.54c-0.02-0.1-0.03-0.2-0.03-0.29h0v-3.38c-0.08,0-0.17,0-0.26-0.01 c-6.09-0.89-7.04-16.26-1.57-15.24c0.68,0.13,1.3,0.49,1.83,1.07v-1.01c-3.5-1.96-3.74-10.77-3.97-14.75 c-3.44,0.7-2.7-8.24-2.7-10.45c0.84-6.97,4.09-9.77,9.42-8.97c5.07-5.3,12.23-8.26,22.08-8.18c10.98-0.22,20.33,2.34,27.12,9.3 c3.57,3.56,5.09,9.07,4.17,16.91c0.11,4.27-0.35,13.93-3.91,16.16c0.09-0.03,0.19-0.05,0.29-0.07c5.76-1.07,4.14,15.24-1.78,15.24 v0c0,7.58-0.96,9.24-6.48,14.44c-0.52,0.49-1.06,1-1.58,1.5C70.61,75.53,73.33,71.04,77.99,75.44L77.99,75.44z M45.9,78.87 c1.07,0.47,2.15,0.84,3.25,1.14c2.46,0.42,8.02,0.58,11.26,0.25c1.17-0.25,2.31-0.59,3.41-1c0.9-0.49,1.76-1.16,2.57-2.02 l4.91-4.77c4.74-4.6,7.96-6.59,7.62-14.21V44.75l-4.98,0.55l-0.02,0c0.2,0.71,0.31,1.45,0.31,2.21c0,2.41-0.98,4.6-2.56,6.18 c-1.58,1.58-3.77,2.56-6.18,2.56c-2.41,0-4.6-0.98-6.18-2.56c-1.58-1.58-2.56-3.77-2.56-6.18c0-0.14,0-0.28,0.01-0.41 c-0.02-0.02-0.04-0.04-0.06-0.06l0,0v0c-1.47-1.72-3.13-1.78-4.65,0c-0.02,0.02-0.04,0.04-0.06,0.06c0.01,0.14,0.01,0.27,0.01,0.41 c0,2.41-0.98,4.6-2.56,6.18c-1.58,1.58-3.77,2.56-6.18,2.56s-4.6-0.98-6.18-2.56c-1.58-1.58-2.56-3.77-2.56-6.18 c0-0.79,0.12-1.57,0.34-2.31l-3.77-0.47v16.21c1.27,6.08,2.83,6.6,6.73,10.41l6.76,6.62C45.01,78.32,45.45,78.62,45.9,78.87 L45.9,78.87z M80.28,56.35v-9.6c0.41-1.74,1.17-2.64,2.04-2.8C85.31,43.4,84.83,55.69,80.28,56.35L80.28,56.35L80.28,56.35z M29.48,56.35v-9.6c-0.41-1.74-1.17-2.64-2.04-2.8C24.44,43.4,24.93,55.69,29.48,56.35L29.48,56.35L29.48,56.35z M44.68,33.67 c0.53-0.02,0.97,0.39,0.99,0.91c0.02,0.53-0.39,0.97-0.91,0.99c-1.82,0.08-3.38,0.45-4.69,1.09c-1.28,0.62-2.32,1.5-3.15,2.62 c-0.31,0.42-0.91,0.51-1.33,0.2c-0.42-0.31-0.51-0.91-0.2-1.33c1.02-1.37,2.29-2.44,3.86-3.2C40.78,34.2,42.59,33.76,44.68,33.67 L44.68,33.67L44.68,33.67z M78.93,42.83l-5.19,0.57c-0.19,0.02-0.36,0.09-0.49,0.2c-1.48-2.81-4.46-4.83-7.75-4.83 c-2.41,0-4.6,0.98-6.18,2.56c-0.98,0.98-1.72,2.18-2.15,3.53c-1.62-1.27-3.94-1.28-5.57,0c-0.43-1.35-1.18-2.55-2.15-3.53 c-1.58-1.58-3.77-2.56-6.18-2.56c-3.2,0-6.1,1.91-7.63,4.6L31.1,42.8l-0.01,0v-8.46c2.17-3.45,3.66-9.65,8.43-12.67 c13.41-8.49,23.31,1.05,39.41,12.57L78.93,42.83L78.93,42.83L78.93,42.83z M43.33,40.37c3.92,0,7.09,3.18,7.09,7.09 c0,3.92-3.17,7.09-7.09,7.09c-3.92,0-7.09-3.18-7.09-7.09C36.24,43.54,39.41,40.37,43.33,40.37L43.33,40.37z M65.5,54.59 c-3.91,0-7.08-3.17-7.08-7.08c0-7.66,10.5-9.76,13.55-2.86C73.86,49.06,70.89,54.59,65.5,54.59L65.5,54.59L65.5,54.59L65.5,54.59z M48.59,64.86c-1.07-0.23-2.1-0.52-3.11-0.86c-1-0.34-1.98-0.73-2.93-1.18c-0.46-0.21-0.65-0.73-0.41-1.15 c0.14-0.25,0.39-0.42,0.68-0.46v0c0.51-0.08,0.92-0.14,1.3-0.19l0.03,0c1.23-0.17,2.17-0.3,3.33-0.76 c0.32-0.13,0.64-0.28,0.96-0.42c1.84-0.85,3.85-1.78,5.86-0.18c0.17,0.14,0.33,0.28,0.47,0.43c0.14-0.15,0.3-0.3,0.47-0.43 c2.01-1.6,4.02-0.67,5.86,0.18c0.32,0.15,0.64,0.29,0.96,0.42c1.15,0.46,2.1,0.59,3.33,0.76l0.03,0c0.38,0.05,0.79,0.11,1.3,0.19 l0,0c0.28,0.04,0.54,0.21,0.68,0.46c0.23,0.42,0.05,0.94-0.41,1.15c-0.95,0.44-1.93,0.84-2.93,1.18c-1.01,0.34-2.04,0.63-3.11,0.86 v0c-1.1,0.3-2.11,0.49-3,0.51c-1.02,0.02-1.9-0.17-2.6-0.64c-0.21-0.14-0.41-0.3-0.57-0.46c-0.17,0.16-0.36,0.31-0.57,0.46 c-0.7,0.47-1.58,0.66-2.6,0.64C50.7,65.35,49.69,65.17,48.59,64.86L48.59,64.86L48.59,64.86L48.59,64.86z M49.44,68.59 c-0.39-0.21-0.54-0.69-0.33-1.08c0.21-0.39,0.69-0.54,1.08-0.33c1.58,0.84,3.13,1.26,4.66,1.27c1.53,0,3.06-0.41,4.6-1.26 c0.39-0.21,0.87-0.07,1.08,0.31c0.21,0.38,0.07,0.87-0.31,1.08c-1.77,0.98-3.56,1.46-5.36,1.45 C53.05,70.03,51.24,69.55,49.44,68.59L49.44,68.59L49.44,68.59z M52.34,56.17c-0.4-0.34-0.46-0.94-0.12-1.35 c0.34-0.4,0.94-0.46,1.35-0.12c0.48,0.4,0.93,0.61,1.37,0.62c0.44,0.01,0.92-0.2,1.44-0.62c0.41-0.33,1.01-0.28,1.34,0.13 c0.33,0.41,0.28,1.01-0.13,1.34c-0.88,0.72-1.77,1.07-2.67,1.05C54.02,57.22,53.16,56.86,52.34,56.17L52.34,56.17L52.34,56.17z M66.1,35.34c-0.53,0-0.95-0.43-0.95-0.96c0-0.53,0.43-0.95,0.96-0.95c1.9,0.01,3.64,0.37,5.2,1.1c1.57,0.74,2.95,1.85,4.12,3.36 c0.32,0.42,0.24,1.02-0.17,1.34c-0.42,0.32-1.02,0.25-1.34-0.17c-0.98-1.27-2.12-2.19-3.41-2.8C69.2,35.64,67.73,35.35,66.1,35.34 L66.1,35.34L66.1,35.34z M47.52,115.88l0.08-0.71c-9.84-13.8-14.37-24.95-17.59-41.64l-10.43,8.64c2.39,1.22,4.83,2.33,7.26,3.58 c0.88,0.45,1.2,1.47,0.7,2.28c-0.67,1.08-4.45,4.06-5.61,5.1C28.98,101.94,37.3,110.76,47.52,115.88L47.52,115.88z M46.16,121.2 l1.14-3.49c-10.97-5.19-20.74-15.41-28.08-24.83c-0.27-0.35-0.23-0.84,0.09-1.14l0,0l5.44-5.02l-3.7-1.89 C0.87,96.16,2.14,102.95,1.85,121.2H46.16L46.16,121.2z M90.54,82.17l-10.43-8.64c-3.19,16.52-7.07,26.68-16.7,40.39l0.18,1.35 c9.45-5.07,17.71-13.87,24.33-22.15c-0.82-0.73-8.35-5.61-4.91-7.38C85.57,84.43,88.11,83.41,90.54,82.17L90.54,82.17z M108.01,121.2c-0.29-18.21,0.97-24.98-19.08-36.29l-3.56,1.82l5.44,5.02l0,0c0.32,0.3,0.37,0.79,0.09,1.14 c-7.32,9.4-16.33,18.77-27.04,24.27l1.43,4.05H108.01L108.01,121.2z M63.56,121.2l-4.7-27.85l5.86-8.26 c-6.2,1.06-12.39,2.02-18.59,0l5.73,8.26l-3.98,27.85L63.56,121.2L63.56,121.2z"/></g></svg>