<svg width="19" height="19" viewBox="0 0 19 19" fill="none" xmlns="http://www.w3.org/2000/svg">
<path d="M2 18.6406C1.45 18.6406 0.979167 18.4448 0.5875 18.0531C0.195833 17.6615 0 17.1906 0 16.6406V2.64062C0 2.09062 0.195833 1.61979 0.5875 1.22813C0.979167 0.836458 1.45 0.640625 2 0.640625H16C16.55 0.640625 17.0208 0.836458 17.4125 1.22813C17.8042 1.61979 18 2.09062 18 2.64062V5.14062H16V2.64062H2V16.6406H16V14.1406H18V16.6406C18 17.1906 17.8042 17.6615 17.4125 18.0531C17.0208 18.4448 16.55 18.6406 16 18.6406H2ZM10 14.6406C9.45 14.6406 8.97917 14.4448 8.5875 14.0531C8.19583 13.6615 8 13.1906 8 12.6406V6.64062C8 6.09062 8.19583 5.61979 8.5875 5.22813C8.97917 4.83646 9.45 4.64062 10 4.64062H17C17.55 4.64062 18.0208 4.83646 18.4125 5.22813C18.8042 5.61979 19 6.09062 19 6.64062V12.6406C19 13.1906 18.8042 13.6615 18.4125 14.0531C18.0208 14.4448 17.55 14.6406 17 14.6406H10ZM17 12.6406V6.64062H10V12.6406H17ZM13 11.1406C13.4167 11.1406 13.7708 10.9948 14.0625 10.7031C14.3542 10.4115 14.5 10.0573 14.5 9.64062C14.5 9.22396 14.3542 8.86979 14.0625 8.57812C13.7708 8.28646 13.4167 8.14062 13 8.14062C12.5833 8.14062 12.2292 8.28646 11.9375 8.57812C11.6458 8.86979 11.5 9.22396 11.5 9.64062C11.5 10.0573 11.6458 10.4115 11.9375 10.7031C12.2292 10.9948 12.5833 11.1406 13 11.1406Z" fill="#9564F8"/>
</svg>
