<svg width="20" height="19" viewBox="0 0 20 19" fill="none" xmlns="http://www.w3.org/2000/svg">
<path id="account_balance_wallet" d="M2.45226 18.8264C1.90035 18.8264 1.42788 18.6312 1.03485 18.2409C0.641826 17.8506 0.445312 17.3814 0.445312 16.8333V2.88175C0.445312 2.33365 0.641826 1.86445 1.03485 1.47414C1.42788 1.08383 1.90035 0.888672 2.45226 0.888672H16.5009C17.0528 0.888672 17.5252 1.08383 17.9183 1.47414C18.3113 1.86445 18.5078 2.33365 18.5078 2.88175V5.3731H16.5009V2.88175H2.45226V16.8333H16.5009V14.342H18.5078V16.8333C18.5078 17.3814 18.3113 17.8506 17.9183 18.2409C17.5252 18.6312 17.0528 18.8264 16.5009 18.8264H2.45226ZM10.48 14.8402C9.92812 14.8402 9.45566 14.6451 9.06263 14.2548C8.6696 13.8645 8.47309 13.3952 8.47309 12.8471V6.86791C8.47309 6.31981 8.6696 5.85061 9.06263 5.4603C9.45566 5.06999 9.92812 4.87483 10.48 4.87483H17.5043C18.0562 4.87483 18.5287 5.06999 18.9217 5.4603C19.3148 5.85061 19.5113 6.31981 19.5113 6.86791V12.8471C19.5113 13.3952 19.3148 13.8645 18.9217 14.2548C18.5287 14.6451 18.0562 14.8402 17.5043 14.8402H10.48ZM17.5043 12.8471V6.86791H10.48V12.8471H17.5043ZM13.4905 11.3523C13.9086 11.3523 14.264 11.207 14.5566 10.9164C14.8493 10.6257 14.9957 10.2728 14.9957 9.85753C14.9957 9.4423 14.8493 9.08936 14.5566 8.79871C14.264 8.50805 13.9086 8.36272 13.4905 8.36272C13.0723 8.36272 12.7169 8.50805 12.4243 8.79871C12.1316 9.08936 11.9852 9.4423 11.9852 9.85753C11.9852 10.2728 12.1316 10.6257 12.4243 10.9164C12.7169 11.207 13.0723 11.3523 13.4905 11.3523Z" fill="white"/>
</svg>
