<svg width="26" height="27" viewBox="0 0 26 27" fill="none" xmlns="http://www.w3.org/2000/svg">
<path d="M26 13.6406C26 20.8203 20.1797 26.6406 13 26.6406C5.8203 26.6406 0 20.8203 0 13.6406C0 6.46092 5.8203 0.640625 13 0.640625C20.1797 0.640625 26 6.46092 26 13.6406Z" fill="#7F56D9"/>
<path d="M9.92612 20.5737L7.45338 16.3201L19.392 16.34L20.6707 14.0307L6 14.0487V13.2898L7.84059 10.1601L18.7761 10.218L17.2507 7.48583L9.55692 7.52559L9.82166 6.70703H17.791L20.2241 11.0166H8.36287L7.17783 13.2302H21.6V13.9512L19.8819 17.1043L8.94098 17.0808L10.4664 19.775H18.234L17.791 20.5737H9.92612Z" fill="white"/>
</svg>
